<svg xmlns="http://www.w3.org/2000/svg" xmlns:xlink="http://www.w3.org/1999/xlink" id="Calque_1" x="0px" y="0px" width="500px" height="500px" viewBox="0 0 500 500" xml:space="preserve"><g>	<path fill="#009EA5" d="M410.921,300.235c-2.586-6.12-7.344-8.875-14.869-8.702c-4.461,0.099-9.294,0.145-15.209,0.145  c-3.515,0-7.029,0.177-10.544,0.161c-3.519-0.016-7.036,0.161-10.554,0.161H358.6c-14.839,0-24.305,9.053-24.421,23.897  c-0.006,0.756-0.179,1.321-0.179,2.115V318h-15.183c0.289,0,0.546-1.187,0.837-1.768c6.762-13.509,16.895-24.105,30.117-31.592  c21.826-12.357,34.855-30.642,38.728-54.394c4.029-24.718-3.288-46.609-21.75-65.087c-3.618-3.623-7.987-6.539-12.213-9.365  c-2.033-1.359-4.135-2.763-6.112-4.221c-0.451-0.333-1.647-1.213-1.692-1.626c-1.578-14.302-8.786-26.49-22.036-37.262  c-12.934-10.515-28.601-17.421-47.897-21.114c-3.94-0.754-7.976-1.295-11.878-1.817c-1.802-0.241-3.604-0.482-5.4-0.745L240.625,89  l-0.153,0.012c-2.115,0.327-4.237,0.621-6.359,0.915c-4.605,0.638-9.367,1.298-13.993,2.302  c-21.021,4.562-37.462,12.845-50.264,25.32c-9.421,9.181-14.821,19.376-16.51,31.17c-0.081,0.572-0.979,1.548-1.849,2.009  c-20.126,10.692-33.2,27.188-38.86,49.029c-8.251,31.836,5.644,65.804,33.788,82.602c13.833,8.257,22.898,16.243,29.394,25.896  c1.562,2.321,2.903,4.74,4.323,7.39c0.429,0.801,0.865,1.356,1.316,2.356h-15.846c0.003,0,0.006-0.444,0.01-0.708  c0.016-1.26,0.032-2.521-0.028-3.805c-0.597-12.634-9.629-21.591-21.966-21.814c-5.441-0.099-11.227-0.133-18.206-0.133  c-5.133,0-10.266,0.03-15.398,0.054c-3.073,0.015-6.146,0.032-9.219,0.042c-5.187,0.017-9.018,2.819-11.71,8.563L89,300.402  v101.663l0.07,0.178c1.633,4.129,4.556,7.052,8.687,8.687l0.178,0.07h49.108l0.159-0.055c0.422-0.146,0.847-0.284,1.272-0.422  c0.943-0.307,1.919-0.623,2.863-1.027c8.698-3.729,13.47-10.263,14.181-19.416c0.111-1.438,0.084-2.861,0.054-4.368  c-0.008-0.412-0.016-0.832-0.021-1.259c0.087-0.01,0.172-0.019,0.255-0.028c0.655-0.07,1.221-0.132,1.755-0.133l4.93-0.01  c3.24-0.007,6.48-0.014,9.721-0.014c6.393,0,11.562,0.029,16.268,0.092c0.928,0.012,2.238,0.654,2.748,1.349  c10.425,14.175,24.406,22.521,41.555,24.804c0.221,0.029,0.486,0.135,0.769,0.245c0.168,0.066,0.336,0.133,0.506,0.189l0.155,0.053  h11.414l0.264-0.035c1.787-0.489,3.627-0.943,5.406-1.382c3.993-0.984,8.121-2.002,12.021-3.507  c9.712-3.743,17.917-10.24,25.086-19.86c0.719-0.964,2.034-1.82,2.815-1.833c4.878-0.079,10.067-0.114,16.827-0.114  c2.988,0,5.977,0.007,8.965,0.014l6.374,0.012c0.255,0,0.357,0.038,0.778,0.096c0.005,0.001-0.162,0.001-0.162,0.002v0.421  c0,0.916,0.17,1.813,0.181,2.712c0.145,11.997,6.195,19.724,17.796,22.958c0.042,0.018,0.196,0.099,0.269,0.152  c0.1,0.074,0.223,0.147,0.326,0.212l0.266,0.153h49.229l0.179-0.071c4.121-1.641,7.043-4.562,8.684-8.684l0.071-0.179V300.423  L410.921,300.235z M358.156,398.349c-7.467-0.008-11.099-3.65-11.105-11.135c-0.023-25.321-0.023-48.821,0.001-71.841  c0.008-7.445,3.666-11.071,11.184-11.085c5.096-0.01,10.189-0.014,15.284-0.014c6.095,0,12.19,0.005,18.286,0.011l4.224,0.003  c0.665,0,1.229,0.041,1.933,0.084c0.046,0.003,0.038,0.006,0.038,0.009v93.972l-24.244,0.003  C368.523,398.355,363.39,398.354,358.156,398.349z M306.139,331H334v40h-27.837C310.851,358,310.843,345,306.139,331z M249.85,304  h0.229c12.461,0,24.231,5.06,33.146,13.985c8.917,8.929,13.822,20.616,13.812,33.095c-0.021,25.863-21.059,46.92-46.899,46.92  h-0.119c-12.524,0-24.33-4.731-33.242-13.636c-8.913-8.906-13.819-20.761-13.814-33.277C202.972,325.281,224.006,304,249.85,304z   M249.905,291.689c-19.039,0-37.078,9.276-48.257,24.813c-0.775,1.077-3.338,2.096-5.273,2.096c-0.591,0-1.073-0.096-1.356-0.269  c-0.177-0.126-0.418-0.792-0.497-1.011c-6.597-18.172-19.058-32.423-38.094-43.569c-18.288-10.707-28.941-25.674-32.569-45.754  c-2.843-15.733,1.136-32.658,10.915-46.436c9.735-13.718,24.321-23.016,40.018-25.51c4.204-0.668,8.649-1.02,13.212-1.044  c8.415-0.045,17.32-0.065,28.874-0.065c5.394,0,10.789,0.025,16.184,0.029c5.396,0.004,10.792,0.03,16.187,0.03h0.405  c6.318,0,12.638-0.028,18.958-0.035c14.167-0.016,28.338-0.043,42.506,0.022c31.684,0.144,57.578,20.751,64.436,51.287  c5.78,25.736-7.006,53.219-31.093,66.839c-18.188,10.285-31.212,25.036-38.713,43.847c-0.222,0.555-0.998,1.233-1.252,1.282  c-0.601-0.028-1.221,0.022-1.84,0.078c-0.434,0.039-0.867,0.079-1.296,0.079c-1.068,0-1.951-0.249-2.788-1.461  c-7.041-10.194-16.658-17.517-28.585-21.764C263.492,292.862,256.736,291.689,249.905,291.689z M305.856,142.253  c-1.371,0-2.74,0.007-4.109,0.015c-1.365,0.007-2.729,0.015-4.141,0.015c-8.342-0.001-16.683-0.162-25.024-0.167  c-22.27-0.014-44.549-0.116-66.822-0.116h-0.735c-2.166,0-4.334,0.128-6.505,0.101c-2.187-0.028-4.376,0.022-6.569,0.022  c-7.799,0-16.162,0.363-24.727,2.604c0.01-0.039,0.021-0.059,0.031-0.098c0.289-1.073,0.538-1.989,0.882-2.846  c3.893-9.73,10.855-17.496,21.911-24.448c12.893-8.107,27.648-12.961,45.111-14.845c5.276-0.569,10.517-0.856,15.575-0.856  c17.164,0,33.437,3.338,48.363,9.921c11.375,5.016,20.053,11.39,26.527,19.486c3.641,4.552,6.122,9.436,7.238,14.223  C323.598,142.495,314.456,142.253,305.856,142.253z M193.866,371H166v-40h27.822C189.187,345,189.201,358,193.866,371z   M125.221,398.355L102,398.353v-94.071l24.312-0.005c5.108,0,10.19,0.003,15.298,0.01c7.748,0.01,11.346,3.575,11.353,11.221  c0.022,23.842,0.014,47.685-0.005,71.526c-0.006,7.714-3.554,11.31-11.219,11.316C136.23,398.354,130.747,398.355,125.221,398.355z  "></path>	<path fill="#009EA5" d="M249.996,384h0.036c18.16,0,32.92-14.678,32.903-32.833c-0.018-18.158-14.799-32.867-32.976-32.867  c-8.813,0.006-17.084,3.469-23.288,9.692c-6.203,6.223-9.615,14.398-9.608,23.224C217.078,369.355,231.853,384,249.996,384z   M229.716,351.281C229.724,340.1,238.848,331,250.053,331h0.217c11.109,0,20.087,9.323,20.014,20.521  c-0.074,11.255-8.997,20.071-20.405,20.07C238.564,371.543,229.708,362.622,229.716,351.281z M249.996,383.257L249.996,383.257  v0.001V383.257z"></path>	<path fill="#009EA5" d="M364.756,217.972c0-27.918-22.438-48.972-52.191-48.972H187.52c-29.755,0-52.192,21.053-52.192,48.971  c0,27.92,22.438,48.974,52.18,48.974l125.058,1.605C341.831,268.551,364.756,246.334,364.756,217.972z M340.722,191.834  c7.371,6.732,11.51,15.762,11.51,26.113c0,10.417-4.061,20.037-11.433,27.09c-7.591,7.262-17.598,11.27-28.166,11.284L187.665,255  h-0.146c-10.813,0-20.914-3.785-28.439-10.658c-7.358-6.72-11.248-15.792-11.248-26.236c0-10.409,3.994-19.789,11.248-26.412  c7.551-6.896,17.65-10.694,28.44-10.694H312v0.422C323,181.422,333.37,185.12,340.722,191.834z"></path></g></svg>