<svg xmlns="http://www.w3.org/2000/svg" xmlns:xlink="http://www.w3.org/1999/xlink" id="Calque_1" x="0px" y="0px" width="500px" height="500px" viewBox="0 0 500 500" xml:space="preserve"><g>	<path fill="#009EA5" d="M57.024,189.007c0-2.75,0-5.499,0-8.249c2.039-8.781,7.585-14.828,14.799-19.867  c7.056-4.929,13.693-10.452,20.638-15.544c2.119-1.554,2.989-3.181,2.971-5.863c-0.123-18.482-0.089-36.966-0.053-55.449  c0.017-8.991,5.229-14.2,14.187-14.227c11.739-0.035,23.479-0.023,35.218-0.004c9.557,0.016,14.458,4.937,14.539,14.565  c0.026,3.043,0.004,6.087,0.004,9.923c12.496-9.518,24.241-18.384,35.892-27.374c5.449-4.205,10.861-8.385,17.786-9.894  c2.75,0,5.499,0,8.249,0c4.482,2.323,9.401,4.067,13.378,7.061c29.927,22.527,59.672,45.296,89.468,67.998  c14.202,10.821,28.532,21.481,42.545,32.542c12.772,10.082,13.486,27.449,2.017,38.768c-0.498,0.491-0.897,1.082-1.422,1.724  c22.808,19.539,36.549,43.969,40.424,73.562c3.889,29.697-3.335,56.897-20.352,81.701c3.916,3.845,7.531,7.467,11.251,10.976  c0.623,0.587,1.753,1.056,2.567,0.952c5.072-0.652,8.928,1.434,12.339,4.93c4.71,4.827,9.408,9.677,14.325,14.289  c5.882,5.517,11.133,11.376,13.182,19.452c0,3,0,5.999,0,8.999c-1.838,3.734-3.288,7.731-5.603,11.142  c-3.806,5.608-9.795,8.146-16.145,9.855c-2.75,0-5.499,0-8.249,0c-4.428-2.389-9.471-4.078-13.155-7.313  c-7.589-6.666-14.472-14.139-21.606-21.319c-2.978-2.997-4.349-6.614-3.933-10.889c0.076-0.782-0.003-1.871-0.48-2.368  c-3.78-3.94-7.674-7.771-11.571-11.674c-0.936,0.578-1.575,0.949-2.19,1.355c-42.249,27.918-94.002,26.379-134.543-3.879  c-1.524-1.137-3.854-1.674-5.811-1.679c-39.862-0.095-79.725-0.068-119.587-0.073c-10.726-0.001-15.51-4.811-15.511-15.582  c-0.003-50.734-0.001-101.468-0.001-152.202c0-1.484,0-2.968,0-4.609c-1.476-0.242-2.688-0.452-3.904-0.639  c-7.173-1.102-13.007-4.581-16.938-10.607C59.68,196.324,58.569,192.525,57.024,189.007z M216.921,114.756  c-9.332,7.11-18.466,14.064-27.596,21.025c-29.7,22.642-59.33,45.376-89.185,67.812c-3.626,2.725-4.882,5.326-4.869,9.73  c0.153,50.73,0.098,101.46,0.098,152.191c0,1.551,0,3.101,0,4.508c19.609,0,38.524,0,57.618,0c0-1.82,0-3.313,0-4.807  c0-38.485-0.019-76.97,0.013-115.455c0.01-11.92,8.054-20.021,19.94-20.148c7.121-0.076,14.248-0.144,21.365,0.05  c2.695,0.074,4.221-0.882,5.796-3.019c20.514-27.834,47.888-43.915,82.379-47.51c5.625-0.586,11.313-0.571,17.712-0.868  C272.195,156.913,244.73,135.966,216.921,114.756z M364.363,185.095c-0.439-5.344-3.249-8.759-7.122-11.706  c-43.248-32.899-86.464-65.84-129.694-98.763c-8.625-6.568-12.726-6.54-21.342,0.026c-33.283,25.366-66.57,50.725-99.855,76.088  c-10.433,7.949-20.906,15.845-31.278,23.873c-5.262,4.073-6.657,10.437-3.82,16.073c2.669,5.302,8.644,8.193,14.511,6.473  c2.541-0.745,4.945-2.35,7.093-3.983c39.381-29.936,78.711-59.938,118.057-89.919c5.182-3.949,6.815-3.952,11.898-0.076  c33.178,25.297,66.311,50.654,99.583,75.826c3.902,2.952,8.502,5.021,12.89,7.281c5.429,2.796,11.054,5.215,16.448,8.073  c4.813,2.549,7.154,2.269,9.995-2.421C362.976,189.883,363.507,187.391,364.363,185.095z M191.304,293.521  c-0.034,56.403,45.831,102.334,102.234,102.381c56.2,0.047,102.282-45.813,102.381-101.888  c0.1-56.7-45.695-102.714-102.251-102.739C237.256,191.249,191.338,237.114,191.304,293.521z M190.176,242.387  c-5.329,0-10.406-0.007-15.483,0.002c-6.966,0.012-8.935,1.964-8.936,8.884c-0.004,38.345-0.004,76.69,0.005,115.035  c0,1.216,0.1,2.431,0.161,3.808c13.865,0,27.497,0,41.428,0C175.894,330.933,170.149,288.559,190.176,242.387z M146.512,82.877  c-13.049,0-25.576,0-38.122,0c0,16.706,0,33.113,0,49.549c0.477-0.044,0.777,0.021,0.936-0.099  c11.936-9.064,23.876-18.122,35.749-27.268c0.752-0.579,1.357-1.844,1.375-2.802C146.571,95.896,146.512,89.532,146.512,82.877z   M385.79,403.019c6.978,7.185,13.927,14.849,21.45,21.901c4.702,4.408,12.555,3.497,17.01-1.044  c4.373-4.458,5.074-12.046,0.727-16.698c-7.042-7.538-14.598-14.596-21.716-21.638C397.355,391.449,391.478,397.328,385.79,403.019  z M389.07,380.672c-3.409-3.326-6.755-6.591-9.715-9.479c-2.75,2.604-5.699,5.397-8.126,7.695c3.212,3.251,6.474,6.554,9.671,9.79  C383.47,386.16,386.305,383.382,389.07,380.672z"></path>	<path fill="#009EA5" d="M204.061,293.453c0.037-49.548,40.35-89.496,90.223-89.405c48.817,0.089,88.937,40.556,88.859,89.627  c-0.079,49.413-40.338,89.483-89.844,89.422C244.167,383.036,204.024,342.709,204.061,293.453z M293.629,216.812  c-42.088-0.044-76.646,34.36-76.793,76.45c-0.149,42.43,34.495,77.144,76.927,77.084c42.1-0.06,76.51-34.491,76.599-76.647  C370.451,251.441,335.935,216.856,293.629,216.812z"></path>	<path fill="#009EA5" d="M291.622,229.685c0.872,0,1.759-0.107,2.612,0.019c3.378,0.497,5.742,3.155,5.731,6.347  c-0.012,3.405-2.474,6.153-6.136,6.252c-14.076,0.381-26.224,5.216-36.392,15.056c-2.89,2.797-6.498,2.663-9.04,0.118  c-2.562-2.565-2.533-6.502,0.326-9.335C260.594,236.381,275.014,230.454,291.622,229.685z"></path></g></svg>