<svg xmlns="http://www.w3.org/2000/svg" xmlns:xlink="http://www.w3.org/1999/xlink" id="Calque_1" x="0px" y="0px" width="500px" height="500px" viewBox="0 0 500 500" xml:space="preserve"><g>	<path fill="#009EA5" d="M418.099,398l11.035,17.5L418.099,433H68v-35h350 M425.773,384H54v63h371.773l19.969-31.5L425.773,384  L425.773,384z"></path>	<path fill="#009EA5" d="M348.099,315l11.035,17.5L348.099,350H68v-35h280 M355.773,301H54v63h301.773l19.969-31.5L355.773,301  L355.773,301z"></path>	<path fill="#009EA5" d="M268.007,231l11.234,18.5L268.007,268H68v-37h200 M275.773,217H54v65h221.773l19.969-32.5L275.773,217  L275.773,217z"></path>	<path fill="#009EA5" d="M198.007,149l11.234,18l-11.234,18H68v-36h130 M205.773,135H54v64h151.773l19.969-32L205.773,135  L205.773,135z"></path>	<path fill="#009EA5" d="M138.099,67l11.035,17l-11.035,17H68V67h70 M145.773,53H54v62h91.773l19.969-31L145.773,53L145.773,53z"></path></g></svg>