<svg xmlns="http://www.w3.org/2000/svg" xmlns:xlink="http://www.w3.org/1999/xlink" id="Calque_1" x="0px" y="0px" width="500px" height="500px" viewBox="0 0 500 500" xml:space="preserve"><path fill="#009EA5" d="M394.007,189.896c-0.944-2.115-3.006-4.637-7.468-4.637c-0.125,0-0.251,0.002-0.378,0.006 c-0.321,0.01-0.643,0.013-0.964,0.013l-133.19-0.011c0.219-0.453,0.426-0.873,0.641-1.289l54.271-105.14 c3.193-6.187,2.801-8.783-2.102-13.189L304.275,65h-92.979l-0.568,0.807c-0.475,0.538-0.994,1.141-1.544,1.694 c-1.268,1.275-2.579,2.635-3.477,4.306c-18.32,34.111-36.876,68.85-54.821,102.426l-17.601,32.939 c-8.748,16.365-17.495,32.736-26.278,49.082c-0.938,1.742-3.788,7.047,1.032,10.748c2.222,1.704,5.411,1.967,7.114,1.971 c24.614,0.06,48.843,0.068,71.358,0.068l40.604-0.003c-0.239,0.622-0.465,1.2-0.701,1.773L163.94,421.886 c-2.474,5.986-1.996,8.334,2.689,12.475l0.54,0.639h5.79l0.558-0.715c0.472-0.47,0.95-1.014,1.428-1.479 c1.032-1.003,2.1-2.079,3.109-3.169c61.022-65.813,122.035-131.656,183.048-197.478l16.854-18.202 c4.688-5.062,9.375-10.129,14.066-15.188C393.017,197.699,396.035,194.438,394.007,189.896z M193.269,390.802l51.198-123.656 l0.243-0.581c0.396-0.94,0.805-1.914,1.099-2.964c0.627-2.242,0.306-4.493-0.903-6.339c-1.211-1.846-3.15-3.038-5.461-3.357 c-0.584-0.081-1.196-0.117-1.985-0.117c-0.318,0-0.638,0.006-0.957,0.012c-0.296,0.005-0.591,0.011-0.885,0.011l-109.967-0.002 c0.046-0.093,0.093-0.184,0.141-0.272l0.922-1.725c29.712-55.597,60.436-113.087,90.741-169.581 c0.394-0.734,1.485-1.522,1.881-1.563c15.579-0.098,31.032-0.11,42.754-0.11c6.243,0,12.487,0.004,18.732,0.008l8.063,0.004 l-28.682,55.56c-8.764,16.977-17.528,33.955-26.289,50.934c-2.125,4.119-2.46,7.427-0.994,9.832 c1.456,2.391,4.516,3.604,9.093,3.604l127.624,0.001L193.269,390.802z"></path></svg>