<svg xmlns="http://www.w3.org/2000/svg" xmlns:xlink="http://www.w3.org/1999/xlink" id="Calque_1" x="0px" y="0px" width="500px" height="500px" viewBox="0 0 500 500" xml:space="preserve"><g>	<path fill="#009EA5" d="M292.738,55c3.817,1.857,6.132,4.597,6.137,9.14c0.025,22.547,7.391,42.943,19.655,61.424  c12.198,18.382,25.551,35.992,38.131,54.125c17.522,25.256,30.756,52.431,36.148,83.011c4.617,26.186,5.224,52.231-2.667,77.959  c-7.395,24.111-20.042,45.103-38.12,62.713c-16.153,15.734-34.873,27.51-56.461,34.086c-10.244,3.12-20.988,4.604-31.508,6.816  c-1.348,0.283-2.712,0.487-4.069,0.727c-6.602,0-13.203,0-19.805,0c-3.365-0.51-6.725-1.054-10.096-1.525  c-32.508-4.549-60.438-18.532-83.522-41.69c-22.499-22.571-36.623-49.788-40.882-81.469c-4.524-33.654-1.097-66.568,12.686-97.919  c6.058-13.781,14.794-25.685,27.295-34.477c7.678-5.4,13.388-3.051,15.395,6.195c3.341,15.393,8.406,30.044,19.067,42.107  c5.574,6.307,12.28,10.889,21.018,12.718c0.326-8.472,0.573-16.77,0.978-25.061c1.185-24.255,3.792-48.29,12.015-71.348  c8.354-23.427,21.074-44.345,37.046-63.32c9.752-11.586,20.559-22.094,32.745-31.133c1.403-1.041,2.828-2.051,4.243-3.076  C289.691,55,291.215,55,292.738,55z M225.339,347.029c0.404-5.306,0.66-9.472,1.048-13.627  c2.462-26.367,14.249-47.769,34.497-64.653c2.617-2.182,5.517-3.157,8.821-1.868c3.467,1.353,4.946,4.167,5.272,7.71  c0.209,2.271,0.259,4.564,0.596,6.814c1.35,9.024,5.963,16.606,10.768,24.103c6.291,9.815,13.277,19.272,18.645,29.57  c9.348,17.936,12.749,37.274,8.094,57.167c-2.035,8.698-6.403,16.85-9.559,24.865c-0.693,0.112-0.323,0.131-0.026-0.008  c2.409-1.129,4.895-2.131,7.191-3.46c46.861-27.11,70.529-67.408,68.97-121.884c-0.949-33.155-10.879-63.658-28.952-91.285  c-11.728-17.927-24.659-35.065-37.019-52.579c-11.835-16.769-22.072-34.353-27.176-54.474c-1.142-4.503-1.969-9.086-2.998-13.897  c-0.681,0.505-1.107,0.764-1.466,1.094c-39.566,36.366-61.057,81.207-63.214,135.068c-0.548,13.696-0.851,27.401-1.292,41.101  c-0.211,6.571-3.263,9.431-9.759,9.317c-10.859-0.19-20.688-3.508-29.473-9.827c-14.521-10.445-22.659-25.323-28.651-41.652  c-0.764-2.082-1.396-4.213-2.089-6.322c-0.468-0.147-0.937-0.293-1.405-0.44c-4.147,6.737-9.019,13.139-12.312,20.27  c-13.255,28.698-16.52,59.204-12.075,90.031c5.693,39.479,26.682,69.819,60.361,91.222c4.876,3.099,10.168,5.541,15.268,8.288  c-1.512-3.874-3.512-6.977-5.101-10.278c-9.494-19.725-8.98-39.982-2.753-60.406c2.516-8.253,6.691-15.642,13.55-21.155  c6.898-5.543,13.107-3.243,15.145,5.318C219.519,336.521,221.027,341.853,225.339,347.029z M261.212,291.383  c-0.684,0.637-1.083,0.929-1.383,1.301c-8.784,10.874-14.885,23.043-16.511,37.011c-1.054,9.051-1.316,18.202-1.713,27.318  c-0.337,7.737-4.089,11.049-11.755,9.992c-7.129-0.983-12.947-4.331-17.424-9.892c-2.114-2.626-3.89-5.524-6.033-8.607  c-0.447,0.995-0.867,1.724-1.113,2.507c-4.306,13.711-5.683,27.611-1.591,41.57c7.579,25.858,33.271,41.181,57.82,34.693  c24.367-6.44,39.245-30.498,37.102-55.252c-1.274-14.715-6.046-28.172-14.159-40.488  C275.984,318.683,265.943,306.755,261.212,291.383z"></path></g></svg>