<svg xmlns="http://www.w3.org/2000/svg" xmlns:xlink="http://www.w3.org/1999/xlink" id="Calque_1" x="0px" y="0px" width="500px" height="500px" viewBox="0 0 500 500" xml:space="preserve"><g>	<path fill="#009EA5" d="M420.574,69.057c4.687,3.566,5.183,5.033,3.645,10.806c-8.59,32.238-17.182,92.67-25.772,124.908  c-1.51,5.666-3.296,7.049-9.252,7.051c-22.466,0.009-98.619,0.004-121.085,0.004c-1.334,0-2.669,0-4.515,0c0,1.38,0,2.559,0,3.737  c0,16.095,0.008,22.792-0.004,38.887c-0.005,6.257-2.256,8.524-8.446,8.532c-9.053,0.012-18.107,0.003-27.16,0.003  c-1.194,0-2.388,0-4.574,0c0,7.717,0.1,15.065-0.017,22.408c-0.53,33.098,0.287,66.161,2.736,99.17  c0.942,12.696,2.327,25.362,3.723,38.018c0.459,4.161-1.28,6.787-4.547,8.825c-35.116,0-70.232,0-105.348,0  c-2.466-1.668-4.413-3.629-4.642-6.869c-2.015-28.517-4.514-57.008-5.987-85.552c-1.665-32.275-0.492-64.568,1.258-96.829  c0.174-3.213,0.183-6.537-0.427-9.674c-2.913-14.978-11.964-24.585-26.425-29.117c-3.444-1.079-6.749-2.16-8.734-5.468  c0-1.566,0-3.131,0-4.697c0.438-1.1,0.993-2.169,1.297-3.306c8.432-31.532,16.874-63.061,25.194-94.622  c0.843-3.196,2.227-5.718,5.046-7.42C193.32,87.854,331.766,65.085,420.574,69.057z M90.004,190.814  c0.506,0.407,0.658,0.591,0.854,0.678c23.895,10.572,34.406,26.81,33.076,52.955c-2.105,41.365-2.373,82.704,0.07,124.053  c0.308,5.208,0.724,10.41,1.09,15.611c29.353,0,58.27,0,87.51,0c-0.453-6.74-0.89-13.252-1.345-20.027c-1.596,0-2.808,0-4.02,0  c-9.953-0.001-19.906,0.026-29.859-0.016c-4.316-0.018-6.974-1.799-7.766-5.002c-1.151-4.659,1.94-8.389,7.248-8.438  c9.952-0.092,19.906-0.031,29.858-0.033c1.201,0,2.403,0,3.326,0c0-6.949,0-13.474,0-20.288c-9.009,0-17.489,0.029-25.97-0.011  c-5.042-0.024-7.901-2.468-7.925-6.63c-0.024-4.172,2.874-6.772,7.82-6.814c7.38-0.062,14.762-0.011,22.142-0.026  c1.178-0.002,2.356-0.098,3.559-0.152c0-6.807,0-13.244,0-20.055c-1.367,0-2.564,0.001-3.761,0  c-5.48-0.005-10.959,0.009-16.439-0.024c-3.021-0.018-5.187-1.549-6.183-4.302c-0.981-2.714-0.61-5.545,1.847-7.267  c1.531-1.073,3.662-1.713,5.55-1.776c6.335-0.214,12.682-0.081,19.138-0.081c0.098-1.129,0.179-1.888,0.227-2.649  c1.742-27.104,3.451-44.811,5.237-71.912c0.58-8.794,2.278-10.257,11.217-10.257c23.037-0.002,99.761-0.037,122.798,0.053  c2.413,0.009,3.493-0.649,4.128-3.063c7.1-26.992,14.316-82.148,21.488-109.121c0.301-1.132,0.48-2.296,0.746-3.59  c-69.515,0-192.395,18.797-261.824,18.797C105.893,131.239,97.958,160.991,90.004,190.814z M128.149,417.778  c29.36,0,58.279,0,87.448,0c-0.659-6.721-1.297-13.233-1.937-19.759c-29.318,0-58.325,0-87.492,0  C126.838,404.707,127.483,411.136,128.149,417.778z M389.833,82.596c-7.774,29.17-15.49,86.318-23.335,115.754  c6.047,0,11.499-0.113,16.943,0.054c2.248,0.069,3.047-0.789,3.591-2.854c7.201-27.296,14.489-82.764,21.741-110.047  c0.239-0.899,0.323-1.839,0.504-2.907C402.661,82.596,396.42,82.596,389.833,82.596z M249.96,249.402c0-15.735,0-21.791,0-37.404  c-7.159,0-14.134,0-21.617,0c-1.091,15.631-2.172,21.729-3.266,37.404C233.653,249.402,241.65,249.402,249.96,249.402z"></path>	<path fill="#009EA5" d="M185.948,175.462c-15.977,0-31.953,0.013-47.93-0.005c-6.953-0.008-9.167-2.264-9.171-9.275  c-0.008-14.189-0.014-28.378,0.002-42.567c0.007-6.515,2.374-8.864,8.915-8.865c32.288-0.008,64.577-0.008,96.865,0  c6.445,0.002,8.782,2.298,8.787,8.61c0.012,14.524,0.012,29.048,0,43.573c-0.005,6.101-2.359,8.501-8.534,8.516  C218.572,175.487,202.26,175.462,185.948,175.462z M142.561,128.411c0,11.162,0,22.15,0,33.236c29.182,0,58.155,0,87.148,0  c0-11.221,0-22.2,0-33.236C200.561,128.411,171.676,128.411,142.561,128.411z"></path></g></svg>