<svg xmlns="http://www.w3.org/2000/svg" xmlns:xlink="http://www.w3.org/1999/xlink" id="Calque_1" x="0px" y="0px" width="500px" height="500px" viewBox="0 0 500 500" xml:space="preserve"><g>	<path fill="#009EA5" d="M204.781,358.725c-4.428,2.371-8.641,4.493-12.694,6.886c-1.065,0.629-1.79,2.018-2.407,3.196  c-8.979,17.141-17.854,34.337-26.938,51.422c-1.033,1.943-2.915,3.764-4.849,4.837c-6.654,3.694-13.501,7.044-20.287,10.499  c-3.572,1.819-6.487,1.047-8.301-2.133c-1.598-2.802-0.556-5.739,3.028-7.713c5.357-2.951,10.757-5.836,16.241-8.541  c2.81-1.386,4.707-3.275,6.158-6.111c8.589-16.78,17.306-33.496,26.152-50.142c1.039-1.955,2.878-3.757,4.779-4.93  c5.201-3.21,10.686-5.958,15.926-9.11c0.988-0.594,2.019-2.265,1.925-3.343c-2.03-23.15-4.216-46.287-6.388-69.424  c-0.056-0.595-0.296-1.172-0.578-2.24c-8.283,2.795-17.131,2.713-24.485,8.486c-9.917,7.784-20.4,14.851-30.711,22.126  c-1.473,1.039-3.28,1.795-5.043,2.203c-7.174,1.661-14.384,3.165-21.594,4.668c-4.02,0.838-7.177-0.865-7.985-4.183  c-0.766-3.144,1.554-6.358,5.363-7.315c2.299-0.578,4.605-1.194,6.946-1.526c10.351-1.469,19.458-5.386,27.663-12.079  c8.022-6.543,16.671-12.328,25.192-18.235c1.865-1.293,4.308-1.841,6.558-2.475c4.923-1.387,9.923-2.51,14.819-3.983  c0.974-0.293,2.323-1.666,2.321-2.539c-0.041-17.599,7.939-30.542,22.329-39.442c-3.237-3.992-6.422-8.031-9.771-11.928  c-0.509-0.592-1.78-0.715-2.704-0.731c-4.249-0.074-8.5-0.024-12.75-0.035c-5.591-0.015-7.221-1.257-8.601-6.766  c-3.397-13.559-6.812-27.114-10.064-40.708c-0.646-2.701-1.77-4.309-4.544-5.152c-3.81-1.157-7.504-2.73-11.178-4.289  c-3.644-1.547-5.096-4.716-3.793-7.794c1.317-3.112,4.515-4.383,8.147-3.043c5.151,1.9,10.207,4.066,15.392,5.862  c3.305,1.144,5.033,3.22,5.881,6.575c3.332,13.188,6.832,26.334,10.278,39.493c0.31,1.182,0.683,2.347,0.999,3.426  c3.103,0,5.931,0,9.212,0c0-6.944-0.089-13.666,0.037-20.384c0.065-3.484,0.11-7.048,0.853-10.424  c2.526-11.477,9.677-19.182,20.267-23.652c0.386-2.873,0.848-5.579,1.065-8.305c0.08-1.001-0.106-2.296-0.697-3.038  c-13.345-16.772-27.524-32.756-45.267-45.071c-3.939-2.734-8.456-4.873-12.998-6.439c-5.823-2.007-10.126,0.172-13.07,5.612  c-0.711,1.315-1.177,2.776-1.982,4.024c-1.749,2.712-4.96,3.675-7.485,2.196c-2.784-1.631-3.947-4.026-2.927-7.289  c4.323-13.827,15.946-19.984,29.735-15.487c12.042,3.927,21.891,11.526,30.871,20.064c9.407,8.944,18.144,18.592,27.149,27.957  c1.37,1.425,2.607,2.979,4.022,4.606c11.155-8.126,22.216-8.556,33.122-0.328c7.166-7.94,13.858-16.229,21.476-23.556  c8.074-7.766,16.798-14.915,25.676-21.765c5.843-4.508,12.661-7.444,20.21-8.317c11.226-1.298,20.408,6.641,23.696,17.71  c0.897,3.02-0.785,5.364-3.6,6.614c-2.861,1.271-5.175,0.051-6.854-2.242c-0.939-1.282-1.373-2.925-2.104-4.369  c-2.735-5.398-6.637-7.745-12.258-5.566c-6.31,2.447-12.611,5.558-18.011,9.592c-15.518,11.59-28.366,25.957-40.198,41.21  c-0.915,1.179-0.471,3.388-0.724,5.109c-0.795,5.414,2.292,7.728,6.637,10.32c10.048,5.993,14.981,15.465,15.239,27.173  c0.175,7.959,0.034,15.924,0.034,24.08c3.127,0,5.82,0,8.77,0c3.075-12.409,6.619-24.65,9.01-37.112  c1.484-7.736,4.856-12.628,12.479-14.848c3.558-1.036,6.815-3.076,10.262-4.536c3.445-1.459,6.818-0.219,8.207,2.858  c1.371,3.036-0.049,6.376-3.619,7.904c-3.783,1.62-7.604,3.213-11.533,4.411c-2.668,0.814-3.658,2.413-4.27,4.93  c-3.392,13.946-6.903,27.862-10.414,41.779c-1.178,4.67-2.523,5.709-7.325,5.766c-4.375,0.052-8.758-0.123-13.121,0.102  c-1.264,0.065-2.782,0.882-3.655,1.837c-3.094,3.387-5.96,6.982-9.047,10.658c15.238,9.186,23.007,23.088,22.56,41.559  c5.661,1.553,11.24,2.861,16.659,4.653c3.248,1.074,6.505,2.529,9.308,4.465c9.559,6.603,19.023,13.354,28.306,20.339  c4.207,3.165,8.663,5.198,13.816,6.097c4.79,0.836,9.516,2.045,14.263,3.119c3.167,0.717,5.408,2.429,6.188,5.764  c1.131,4.835-1.968,8.262-6.882,7.287c-7.835-1.556-15.648-3.237-23.427-5.049c-1.633-0.38-3.195-1.396-4.594-2.392  c-10.076-7.175-20.342-14.114-30.065-21.744c-7.224-5.669-15.899-5.847-24.252-8.544c-1.06,14.687-2.088,28.881-3.106,43.077  c-0.661,9.224-1.199,18.458-2.032,27.666c-0.217,2.405,0.473,3.591,2.542,4.64c5.009,2.539,9.85,5.413,14.866,7.938  c3.032,1.527,5.089,3.647,6.656,6.708c8.533,16.669,17.197,33.271,25.991,49.804c1.026,1.93,2.873,3.723,4.775,4.831  c5.605,3.265,11.445,6.126,17.162,9.201c3.708,1.995,4.628,4.687,2.856,7.991c-1.669,3.113-4.281,3.819-7.971,1.957  c-7.133-3.599-14.289-7.162-21.281-11.021c-1.706-0.942-3.197-2.771-4.132-4.538c-8.641-16.332-17.212-32.701-25.614-49.156  c-1.727-3.382-3.821-5.949-7.343-7.496c-2.951-1.297-5.719-3.012-9.093-4.825c-0.164,1.574-0.32,2.722-0.397,3.875  c-0.829,12.469-1.658,24.939-2.463,37.41c-0.969,15.022-8.754,25.566-21.903,32.077c-14.76,7.308-29.768,6.982-44.256-0.813  c-12.843-6.911-19.72-17.825-20.637-32.598c-0.751-12.092-2.078-24.148-3.173-36.218  C205.309,361.246,205.036,360.166,204.781,358.725z M275.627,226.44c-1.023,2.451-1.736,4.45-2.668,6.342  c-2.897,5.882-6.944,10.799-13.17,13.232c-2.815,1.1-3.621,2.487-3.616,5.425c0.092,55.984,0.066,111.969,0.075,167.953  c0,1.319,0.112,2.638,0.184,4.235c9.454-1.434,17.367-4.926,22.641-12.534c2.187-3.155,3.851-7.17,4.272-10.958  c1.228-11.041,1.704-22.165,2.483-33.256c1.647-23.428,3.319-46.854,4.945-70.283c0.934-13.46,2.076-26.913,2.614-40.389  C293.926,242.763,287.237,233.257,275.627,226.44z M224.933,226.687c-8.273,4.192-14.312,10.661-16.193,19.758  c-1.285,6.214-1.239,12.899-0.663,19.272c4.012,44.418,8.331,88.808,12.523,133.209c1.098,11.63,12.627,23.118,23.972,23.602  c0-7.499,0-14.992,0-22.484c0-49.623-0.011-99.246,0.033-148.869c0.002-2.439-0.574-3.658-3.009-5.054  c-4.11-2.356-7.96-5.539-11.097-9.099C228.045,234.235,226.835,230.351,224.933,226.687z M250.196,210.757  c4.624,0,9.253,0.134,13.871-0.027c11.224-0.389,19.824-8.265,20.439-19.452c0.472-8.586,0.447-17.263-0.22-25.832  c-0.759-9.754-9.435-17.429-19.22-17.655c-9.49-0.219-18.993-0.27-28.482-0.05c-11.548,0.267-20.325,9.4-20.495,21.04  c-0.1,6.872-0.08,13.748-0.009,20.621c0.125,12.149,8.854,21.027,20.994,21.347C241.445,210.864,245.822,210.767,250.196,210.757z   M262.393,135.538c0.001-7.664-5.489-13.229-12.611-13.211c-6.933,0.018-12.427,5.771-12.438,13.211  C245.629,135.538,253.915,135.538,262.393,135.538z M236.389,222.912c1.314,7.7,7.871,13.804,14.065,13.402  c6.253-0.406,11.887-6.472,12.284-13.402C253.967,222.912,245.208,222.912,236.389,222.912z"></path></g></svg>